<svg width="72" height="72" viewBox="0 0 72 72" fill="none" xmlns="http://www.w3.org/2000/svg">
<circle cx="36" cy="36" r="36" fill="#55BA45" fill-opacity="0.1"/>
<path d="M3.14722e-06 36C2.31253e-06 45.5478 3.79285 54.7045 10.5442 61.4558C17.2955 68.2071 26.4522 72 36 72C45.5478 72 54.7045 68.2072 61.4558 61.4558C68.2072 54.7045 72 45.5478 72 36V36C60.7423 30.0584 47.2556 29.9587 35.9288 35.7673L31.2924 38.1449C21.2702 43.2845 9.22721 42.459 3.14722e-06 36V36Z" fill="#55BA45" fill-opacity="0.1"/>
<path d="M40.6667 47.3029L38.2925 44.8257L37 46.1743L40.6667 50L48 42.3486L46.7075 41L40.6667 47.3029Z" fill="#55BA45"/>
<path d="M44.9091 25H41.7727V24C41.7711 23.4701 41.5503 22.9623 41.1585 22.5875C40.7667 22.2128 40.2359 22.0016 39.6818 22H31.3182C30.7641 22.0016 30.2333 22.2128 29.8415 22.5875C29.4498 22.9623 29.2289 23.4701 29.2273 24V25H26.0909C25.5369 25.0016 25.006 25.2128 24.6142 25.5875C24.2225 25.9623 24.0017 26.4701 24 27V48C24.0017 48.5299 24.2225 49.0377 24.6142 49.4125C25.006 49.7872 25.5369 49.9984 26.0909 50H35.5V48H26.0909V27H29.2273V30H41.7727V27H44.9091V38H47V27C46.9983 26.4701 46.7775 25.9623 46.3858 25.5875C45.994 25.2128 45.4631 25.0016 44.9091 25ZM39.6818 28H31.3182V24H39.6818V28Z" fill="#55BA45"/>
</svg>
