<svg width="72" height="72" viewBox="0 0 72 72" fill="none" xmlns="http://www.w3.org/2000/svg">
<circle cx="36" cy="36" r="36" fill="#022277" fill-opacity="0.05"/>
<path d="M3.14722e-06 36C2.31253e-06 45.5478 3.79285 54.7045 10.5442 61.4558C17.2955 68.2071 26.4522 72 36 72C45.5478 72 54.7045 68.2072 61.4558 61.4558C68.2072 54.7045 72 45.5478 72 36L71.438 35.8394C60.4005 32.6859 48.6706 32.9176 37.7663 36.5045L33.717 37.8365C22.6459 41.4783 10.61 40.8227 3.14722e-06 36V36Z" fill="#022277" fill-opacity="0.05"/>
<path d="M27.215 31.4194H37.785C38.1073 31.4194 38.4163 31.2919 38.6441 31.065C38.872 30.8382 39 30.5305 39 30.2097C39 29.8889 38.872 29.5812 38.6441 29.3543C38.4163 29.1274 38.1073 29 37.785 29H27.215C26.8927 29 26.5837 29.1274 26.3559 29.3543C26.128 29.5812 26 29.8889 26 30.2097C26 30.5305 26.128 30.8382 26.3559 31.065C26.5837 31.2919 26.8927 31.4194 27.215 31.4194ZM27.215 38H33.8243C34.1465 38 34.4556 37.8726 34.6834 37.6457C34.9112 37.4188 35.0393 37.1111 35.0393 36.7903C35.0393 36.4695 34.9112 36.1618 34.6834 35.935C34.4556 35.7081 34.1465 35.5806 33.8243 35.5806H27.215C26.8927 35.5806 26.5837 35.7081 26.3559 35.935C26.128 36.1618 26 36.4695 26 36.7903C26 37.1111 26.128 37.4188 26.3559 37.6457C26.5837 37.8726 26.8927 38 27.215 38Z" fill="#022277"/>
<path d="M27.8941 42.9354H40.5044C40.6452 42.9362 40.7849 42.909 40.9153 42.8554C41.0457 42.8019 41.1644 42.7229 41.2644 42.6231L50.3206 33.5123C50.5356 33.3025 50.7065 33.0514 50.8232 32.7739C50.9399 32.4964 51 32.1982 51 31.8969C51 31.5956 50.9399 31.2974 50.8232 31.0199C50.7065 30.7424 50.5356 30.4913 50.3206 30.2815L48.6721 28.6662C48.4636 28.4499 48.214 28.278 47.9381 28.1606C47.6623 28.0432 47.3659 27.9827 47.0664 27.9827C46.7669 27.9827 46.4704 28.0432 46.1946 28.1606C45.9188 28.278 45.6692 28.4499 45.4607 28.6662L44.0476 30.0877V24.2831C44.0563 23.6898 43.8317 23.1171 43.4227 22.6895C43.0137 22.2619 42.4535 22.0141 41.8639 22H23.2375C22.941 22 22.6474 22.0592 22.3739 22.1744C22.1003 22.2895 21.8522 22.4582 21.6441 22.6706C21.4359 22.8831 21.2718 23.135 21.1612 23.4118C21.0507 23.6886 20.996 23.9848 21.0002 24.2831V47.7169C20.996 48.0152 21.0507 48.3114 21.1612 48.5882C21.2718 48.865 21.4359 49.1169 21.6441 49.3294C21.8522 49.5418 22.1003 49.7105 22.3739 49.8256C22.6474 49.9408 22.941 50 23.2375 50H41.8639C42.4572 50 43.0263 49.7629 43.4459 49.3408C43.8654 48.9187 44.1012 48.3462 44.1012 47.7492V44.6154C44.1012 44.3298 43.9884 44.0558 43.7876 43.8539C43.5869 43.6519 43.3146 43.5385 43.0307 43.5385C42.7468 43.5385 42.4745 43.6519 42.2737 43.8539C42.073 44.0558 41.9602 44.3298 41.9602 44.6154V47.7169C41.9602 47.7426 41.9501 47.7673 41.932 47.7855C41.9139 47.8036 41.8894 47.8138 41.8639 47.8138H23.2375C23.212 47.8138 23.1875 47.8036 23.1694 47.7855C23.1513 47.7673 23.1412 47.7426 23.1412 47.7169V24.2831C23.1359 24.268 23.1343 24.2518 23.1367 24.236C23.1391 24.2202 23.1453 24.2052 23.1549 24.1925C23.1644 24.1797 23.177 24.1694 23.1914 24.1627C23.2058 24.156 23.2217 24.1529 23.2375 24.1538H41.8639C41.8894 24.1538 41.9139 24.1641 41.932 24.1822C41.9501 24.2004 41.9602 24.2251 41.9602 24.2508V32.2092L36.4472 37.7554C36.348 37.856 36.2695 37.9754 36.2163 38.1066C36.163 38.2378 36.136 38.3783 36.1368 38.52V40.76H27.8941C27.6102 40.76 27.3379 40.8735 27.1372 41.0754C26.9364 41.2774 26.8236 41.5513 26.8236 41.8369C26.8236 42.1225 26.9364 42.3965 27.1372 42.5984C27.3379 42.8004 27.6102 42.9138 27.8941 42.9138V42.9354ZM38.2778 38.9938L43.7586 33.48L43.8121 33.4262L47.0236 30.1954C47.0412 30.1795 47.0641 30.1707 47.0878 30.1707C47.1115 30.1707 47.1344 30.1795 47.152 30.1954L48.8327 31.8538V31.9831L40.0869 40.7815H38.2778V38.9938Z" fill="#022277"/>
</svg>
