<svg width="72" height="72" viewBox="0 0 72 72" fill="none" xmlns="http://www.w3.org/2000/svg">
<circle cx="36" cy="36" r="36" fill="#F73C4F" fill-opacity="0.1"/>
<path d="M3.14722e-06 36C2.31253e-06 45.5478 3.79285 54.7045 10.5442 61.4558C17.2955 68.2071 26.4522 72 36 72C45.5478 72 54.7045 68.2072 61.4558 61.4558C68.2072 54.7045 72 45.5478 72 36L66.6022 34.8636C57.8356 33.018 48.6968 34.4292 40.8952 38.8334V38.8334C29.234 45.4163 14.9197 45.1552 3.50628 38.1516L3.14722e-06 36Z" fill="#F73C4F" fill-opacity="0.05"/>
<path d="M44.9091 26H41.7727V25C41.7711 24.4701 41.5503 23.9623 41.1585 23.5875C40.7667 23.2128 40.2359 23.0016 39.6818 23H31.3182C30.7641 23.0016 30.2333 23.2128 29.8415 23.5875C29.4498 23.9623 29.2289 24.4701 29.2273 25V26H26.0909C25.5369 26.0016 25.006 26.2128 24.6142 26.5875C24.2225 26.9623 24.0017 27.4701 24 28V49C24.0017 49.5299 24.2225 50.0377 24.6142 50.4125C25.006 50.7872 25.5369 50.9984 26.0909 51H35.5V49H26.0909V28H29.2273V31H41.7727V28H44.9091V39H47V28C46.9983 27.4701 46.7775 26.9623 46.3858 26.5875C45.994 26.2128 45.4631 26.0016 44.9091 26ZM39.6818 29H31.3182V25H39.6818V29Z" fill="#F73C4F"/>
<path d="M46.6569 49.6569L41 44" stroke="#F73C4F" stroke-width="1.5" stroke-miterlimit="10" stroke-linecap="round" stroke-linejoin="round"/>
<path d="M46.6562 44L40.9994 49.6569" stroke="#F73C4F" stroke-width="1.5" stroke-miterlimit="10" stroke-linecap="round" stroke-linejoin="round"/>
</svg>
